<svg width="25" height="25" viewBox="0 0 25 25" fill="none" xmlns="http://www.w3.org/2000/svg">
<path fill-rule="evenodd" clip-rule="evenodd" d="M5.49439 10.5479C5.2085 11.1695 5.2085 11.8766 5.2085 13.291V17.708C5.2085 19.6722 5.2085 20.6543 5.81869 21.2645C6.37711 21.8229 7.24699 21.8703 8.896 21.8743V16.6664C8.896 15.5388 9.81008 14.6248 10.9377 14.6248H14.0627C15.1902 14.6248 16.1043 15.5388 16.1043 16.6664V21.8743C17.7533 21.8703 18.6232 21.8229 19.1816 21.2645C19.7918 20.6543 19.7918 19.6722 19.7918 17.708V13.291C19.7918 11.8766 19.7918 11.1695 19.5059 10.5479C19.22 9.92625 18.6831 9.46603 17.6093 8.5456L16.5676 7.65274C14.6267 5.98906 13.6562 5.15723 12.5002 5.15723C11.3441 5.15723 10.3737 5.98906 8.43272 7.65274L7.39105 8.5456C6.31721 9.46603 5.78029 9.92625 5.49439 10.5479ZM14.1043 21.8747V16.6664C14.1043 16.6434 14.0857 16.6248 14.0627 16.6248H10.9377C10.9147 16.6248 10.896 16.6434 10.896 16.6664V21.8747H14.1043Z" fill="white"/>
</svg>

<svg xmlns="http://www.w3.org/2000/svg" width="48" height="48" id="history"><path fill="none" d="M0 0h48v48H0z"></path><path d="M25.99 6C16.04 6 8 14.06 8 24H2l7.79 7.79.14.29L18 24h-6c0-7.73 6.27-14 14-14s14 6.27 14 14-6.27 14-14 14c-3.87 0-7.36-1.58-9.89-4.11l-2.83 2.83C16.53 39.98 21.02 42 25.99 42 35.94 42 44 33.94 44 24S35.94 6 25.99 6zM24 16v10l8.56 5.08L34 28.65l-7-4.15V16h-3z" opacity=".9"></path></svg>

<svg width="22" height="22" viewBox="0 0 22 22" fill="none" xmlns="http://www.w3.org/2000/svg">
<path fill-rule="evenodd" clip-rule="evenodd" d="M14.0373 2.40225L11.5144 2.0058C8.29385 1.49971 6.68356 1.24666 5.63328 2.14478C4.58301 3.0429 4.58301 4.67296 4.58301 7.93306V10.0003H9.83572L7.46881 7.04165L9.03054 5.79226L12.6972 10.3756L13.197 11.0003L12.6972 11.625L9.03054 16.2083L7.46881 14.9589L9.83572 12.0003H4.58301V14.0668C4.58301 17.3269 4.58301 18.9569 5.63328 19.855C6.68356 20.7532 8.29385 20.5001 11.5144 19.994L14.0373 19.5976C15.65 19.3441 16.4564 19.2174 16.9364 18.6561C17.4163 18.0948 17.4163 17.2786 17.4163 15.6461V6.35376C17.4163 4.72124 17.4163 3.90497 16.9364 3.34368C16.4564 2.78239 15.65 2.65568 14.0373 2.40225Z" fill="white"/>
</svg>

